<svg viewBox="0 0 64 40" height="100%" width="100%" xmlns="http://www.w3.org/2000/svg"><rect width="64" height="40" data-fill="1" rx="2"></rect><path data-fill="2" d="M5.596 12.526H2.945v9.261h2.637c1.403 0 2.416-.33 3.305-1.069a4.647 4.647 0 001.68-3.555c.001-2.733-2.041-4.637-4.97-4.637zm2.11 6.957c-.567.513-1.304.736-2.471.736H4.75v-6.124h.485c1.167 0 1.875.209 2.472.75.624.555 1 1.417 1 2.304 0 .89-.376 1.778-1 2.334zM13.206 12.526h-1.807v9.261h1.807v-9.26zM17.623 16.08c-1.084-.401-1.402-.666-1.402-1.166 0-.583.567-1.027 1.345-1.027.542 0 .986.223 1.457.75l.945-1.237a4.052 4.052 0 00-2.721-1.027c-1.639 0-2.889 1.138-2.889 2.654 0 1.276.582 1.929 2.279 2.54.707.249 1.067.415 1.249.527.36.235.541.569.541.958 0 .75-.596 1.306-1.402 1.306-.862 0-1.556-.43-1.972-1.235l-1.167 1.124c.833 1.221 1.832 1.763 3.207 1.763 1.877 0 3.194-1.248 3.194-3.041 0-1.471-.61-2.138-2.664-2.889zM20.857 17.163c0 2.722 2.137 4.833 4.888 4.833.778 0 1.444-.153 2.265-.54V19.33c-.723.723-1.362 1.014-2.18 1.014-1.82 0-3.111-1.32-3.111-3.195 0-1.778 1.332-3.18 3.026-3.18.862 0 1.514.307 2.265 1.042v-2.126c-.793-.402-1.445-.569-2.222-.569-2.737 0-4.931 2.154-4.931 4.847zM42.333 18.747l-2.47-6.22h-1.974l3.93 9.498h.973l4-9.499h-1.958l-2.501 6.22zM47.61 21.787h5.123V20.22h-3.319v-2.5h3.196v-1.568h-3.196v-2.056h3.319v-1.569h-5.124v9.261zM59.885 15.26c0-1.734-1.194-2.734-3.278-2.734H53.93v9.261h1.804v-3.72h.236l2.5 3.72h2.222l-2.916-3.901c1.36-.277 2.11-1.208 2.11-2.626zm-3.624 1.53h-.528v-2.805h.556c1.126 0 1.737.471 1.737 1.372 0 .931-.611 1.433-1.765 1.433z"></path><path data-fill="3" d="M64 22S46.341 34.435 14 40h48a2 2 0 002-2V22z"></path><path data-fill="3" d="M33.526 22.116a4.927 4.927 0 100-9.854 4.927 4.927 0 000 9.854z"></path></svg>