<svg viewBox="0 0 64 40" height="100%" width="100%" xmlns="http://www.w3.org/2000/svg"><rect width="64" height="40" data-fill="1" rx="2"></rect><path data-fill="2" d="M39.142 26.76v-1.204s-.08-.963-1.043-.963h-1.605v2.166h-1.605v-6.098h3.932s2.006-.241 2.006 1.765c0 1.043-.883 1.445-.883 1.445s.803.32.803 1.364v1.524h-1.605zm-2.648-3.612h1.685c.481 0 .883-.24.883-.561 0-.321-.401-.562-.883-.562h-1.685v1.123zm-8.105 3.611h-1.445l-1.685-1.845-1.685 1.845h-6.018V20.58h5.858l1.845 1.926 1.846-1.926h5.136s2.006-.24 2.006 1.766c0 1.846-.642 2.407-2.729 2.407h-1.604v2.006h-1.525zm-2.087-3.049l2.007 2.167v-4.253l-2.007 2.086zm-7.142 1.685h3.37l1.606-1.685-1.605-1.685h-3.37v.963h3.29v1.364h-3.29v1.043zm10.754-2.247h1.685c.481 0 .882-.24.882-.561 0-.321-.4-.562-.882-.562h-1.685v1.123zm20.222 3.611h-2.89v-1.444h2.489s.882.08.882-.482c0-.561-1.364-.481-1.364-.481s-2.247.16-2.247-1.846c0-2.006 2.006-1.926 2.006-1.926h3.13v1.445h-2.488s-.882-.16-.882.401c0 .482 1.203.401 1.203.401s2.488-.16 2.488 1.685c0 2.007-1.605 2.167-2.167 2.167-.08.08-.16.08-.16.08zm-8.667 0v-6.098h5.056v1.444h-3.37v.963h3.29v1.364h-3.29v1.044h3.37v1.364h-5.056v-.08zm14.284 0h-2.889v-1.444h2.488s.883.08.883-.482c0-.561-1.365-.481-1.365-.481s-2.246.16-2.246-1.846c0-2.006 2.006-1.926 2.006-1.926h3.049v1.445h-2.488s-.882-.16-.882.401c0 .482 1.203.401 1.203.401S58 22.667 58 24.512c0 2.007-1.605 2.167-2.167 2.167 0 .08-.08.08-.08.08zm-22.47-6.58v-1.203s-.08-.963-1.042-.963h-1.605v2.166H29.03V14.08h3.932s2.006-.24 2.006 1.766c0 1.043-.883 1.444-.883 1.444s.803.321.803 1.364v1.525h-1.605zm-2.647-3.61h1.685c.482 0 .883-.242.883-.563 0-.32-.401-.561-.883-.561h-1.685v1.123zm21.667 3.61l-2.568-4.092v4.092h-3.13l-.562-1.284h-2.969l-.562 1.284h-2.487s-2.167-.32-2.167-2.889c0-3.37 2.488-3.29 2.568-3.29l2.006.08v1.284h-1.605s-1.043 0-1.203 1.365v.4c0 2.087 1.845 1.445 1.925 1.445L43.556 14h2.247l2.407 5.537V14h2.247l2.487 4.012V14h1.605v6.18h-2.246zm-8.507-2.889h1.605l-.802-1.845-.803 1.845zm-23.352 2.89v-4.254l-2.086 4.253h-1.284l-2.006-4.253v4.253h-3.21l-.562-1.284H8.327l-.562 1.284H6l2.648-6.099h2.247l2.488 5.618V14.08h2.568l1.765 3.852 1.765-3.852h2.568v6.1h-1.605zM9.05 17.37h1.605l-.802-1.845-.803 1.845zm14.124 2.81v-6.1h5.055v1.445h-3.37v.963h3.29v1.284h-3.29v1.043h3.37v1.364h-5.055zm12.518 0V14h1.605v6.18h-1.605z"></path></svg>