<svg viewBox="0 0 64 40" height="100%" width="100%" xmlns="http://www.w3.org/2000/svg"><rect width="64" height="40" data-fill="1" rx="2"></rect><path data-fill="2" d="M27.75 20.125c0-3.549 1.662-6.71 4.25-8.746A11.077 11.077 0 0025.125 9C18.98 9 14 13.981 14 20.125c0 6.145 4.98 11.126 11.125 11.126 2.595 0 4.983-.889 6.875-2.379a11.105 11.105 0 01-4.25-8.747z"></path><path data-fill="3" d="M50 20.125c0 6.145-4.98 11.126-11.125 11.126-2.595 0-4.983-.889-6.875-2.379a11.105 11.105 0 004.249-8.747c0-3.549-1.662-6.71-4.25-8.746A11.077 11.077 0 0138.876 9C45.02 9 50 13.981 50 20.125z"></path><path data-fill="4" d="M32 28.872a11.105 11.105 0 004.25-8.747c0-3.55-1.662-6.71-4.25-8.747a11.105 11.105 0 00-4.25 8.747c0 3.55 1.662 6.71 4.25 8.747z"></path></svg>