<svg viewBox="0 0 64 40" height="100%" width="100%" xmlns="http://www.w3.org/2000/svg"><rect width="64" height="40" data-fill="1" rx="2"></rect><path data-fill="2" d="M29.15 26.98h-3.455l2.16-13.647h3.454l-2.16 13.647zm-6.392-13.647l-3.282 9.415-.431-1.987-1.21-6.132s-.172-1.21-1.64-1.21h-5.442l-.086.173s1.64.346 3.627 1.555l3.023 11.833h3.628l5.527-13.647h-3.714zm23.58 8.896l1.813-5.095 1.037 5.095h-2.85zm3.8 4.75h3.195L50.57 13.334h-2.763c-1.296 0-1.641 1.037-1.641 1.037l-5.182 12.61h3.627l.69-1.987h4.406l.432 1.987zm-8.896-10.104l.518-2.937s-1.555-.605-3.11-.605c-1.727 0-5.786.778-5.786 4.492 0 3.54 4.836 3.54 4.836 5.44 0 1.901-4.318 1.555-5.7.346l-.518 3.11s1.554.777 3.886.777 5.96-1.296 5.96-4.664c0-3.541-4.837-3.887-4.837-5.441 0-1.555 3.282-1.382 4.75-.518"></path><path data-fill="3" d="M19.044 20.761l-1.209-6.132s-.172-1.21-1.64-1.21h-5.442l-.086.173s2.59.519 5.182 2.678c2.418 1.986 3.195 4.491 3.195 4.491"></path></svg>