<svg viewBox="0 0 64 40" height="100%" width="100%" xmlns="http://www.w3.org/2000/svg"><rect width="64" height="40" data-fill="1" rx="2"></rect><path data-fill="2" fill-rule="evenodd" d="M32.485 16.35c-.307 0-.712.251-.904.552 0 0-2.064 3.54-2.267 3.893-.11.19-.222.07-.241 0l-.638-3.869c-.071-.304-.39-.566-.787-.564l-1.286.002c-.312 0-.506.247-.436.548 0 0 .983 5.578 1.176 6.89.095.724-.01.853-.01.853l-1.276 2.225c-.187.3-.084.548.225.548l1.49-.001c.31 0 .719-.246.904-.548l5.737-9.706s.55-.83.043-.822c-.344.006-1.73 0-1.73 0M17.482 15.443a2.146 2.146 0 00-.791-.846c-.355-.22-.77-.37-1.25-.463a10.432 10.432 0 00-1.7-.134l-3.008.002a.752.752 0 00-.691.549l-2.028 8.816c-.07.3.125.55.437.55h1.442c.31 0 .62-.243.689-.55l.496-2.14a.738.738 0 01.687-.547h.412c1.762-.002 3.129-.362 4.11-1.083.98-.72 1.471-1.674 1.47-2.855.001-.518-.088-.952-.276-1.299m-3.11 2.881c-.436.318-1.037.477-1.818.477h-.354c-.311 0-.508-.247-.438-.55l.434-1.869a.73.73 0 01.687-.548l.471-.003c.551 0 .97.094 1.252.282.278.182.42.47.414.858.008.583-.213 1.034-.648 1.353" clip-rule="evenodd"></path><path data-fill="2" fill-rule="evenodd" d="M21.876 22.114a3.818 3.818 0 01-.566.291 2.043 2.043 0 01-.751.163c-.358 0-.634-.05-.82-.159-.186-.102-.284-.281-.28-.536 0-.296.068-.524.21-.704.141-.173.35-.312.612-.415.261-.09.582-.16.951-.214.329-.04.978-.115 1.061-.116.082 0 .138-.046.102.174-.018.097-.204.867-.29 1.217-.026.105-.166.258-.229.3zm2.548-5.41c-.547-.306-1.402-.46-2.572-.46-.58 0-1.162.045-1.745.136-.43.066-.472.078-.74.135-.547.12-.631.668-.631.668l-.176.723c-.1.463.164.444.281.408.24-.072.369-.143.857-.254.465-.107.958-.185 1.351-.182.577 0 1.015.062 1.307.184.291.127.435.345.435.654.002.074.004.144-.023.203-.024.058-.07.113-.208.13-.822.05-1.412.125-2.125.228-.702.1-1.315.269-1.828.503-.548.243-.956.568-1.239.98-.276.413-.414.914-.414 1.503 0 .558.2 1.012.588 1.366.393.348.903.52 1.52.52.386-.002.687-.03.904-.084.213-.055.447-.131.693-.238.185-.077.384-.189.594-.328.21-.14.357-.24.543-.362l.006.01-.053.233-.002.007.002.003c-.061.28.107.512.383.539l.004.005h.025v.003l1.108-.003h.207c.014 0 .015-.005.02-.008.283-.036.553-.264.617-.54l1.052-4.541c.024-.106.044-.23.054-.372.014-.144.03-.262.025-.346.003-.643-.274-1.118-.82-1.424z" clip-rule="evenodd"></path><path data-fill="3" fill-rule="evenodd" d="M48.037 22.12a3.84 3.84 0 01-.566.293 2.036 2.036 0 01-.75.163c-.36 0-.635-.052-.821-.16-.186-.102-.284-.28-.28-.536 0-.295.068-.524.208-.704.142-.172.353-.312.615-.415.26-.09.58-.161.949-.213.33-.041.978-.116 1.061-.117.083 0 .139-.046.102.175-.017.095-.205.866-.291 1.215-.025.106-.164.259-.227.3zm2.549-5.41c-.548-.305-1.404-.46-2.575-.46-.578 0-1.16.047-1.744.138-.429.065-.472.076-.74.133-.546.12-.632.668-.632.668l-.175.724c-.1.462.163.443.28.408.24-.073.37-.145.858-.255.467-.105.959-.185 1.352-.182.576 0 1.015.064 1.306.185.292.128.437.344.437.654 0 .073.002.142-.024.204-.024.056-.07.111-.209.13-.822.048-1.412.124-2.124.228-.701.099-1.315.267-1.83.502-.546.242-.956.567-1.238.98-.274.412-.412.913-.414 1.503 0 .558.2 1.013.588 1.366.393.348.903.52 1.52.52.386-.002.688-.03.904-.084.213-.054.448-.13.694-.238a3.57 3.57 0 00.593-.328c.21-.14.356-.24.543-.363l.007.012-.053.232c0 .002-.003.004-.003.005l.002.005c-.061.28.108.511.384.54l.004.004h.024l.002.002c.182 0 .813 0 1.108-.002h.205c.013 0 .015-.004.02-.008a.75.75 0 00.618-.541l1.052-4.54c.023-.107.043-.23.054-.372.013-.144.029-.261.024-.347.003-.642-.273-1.117-.818-1.423z" clip-rule="evenodd"></path><path data-fill="3" fill-rule="evenodd" d="M43.635 15.475a2.21 2.21 0 00-.792-.849 3.563 3.563 0 00-1.253-.46 9.942 9.942 0 00-1.695-.133h-3.014a.752.752 0 00-.687.55l-2.025 8.818c-.074.3.127.55.432.548l1.446-.002a.75.75 0 00.692-.546l.488-2.139c.069-.3.38-.551.692-.547h.41c1.765 0 3.134-.362 4.113-1.084.977-.726 1.468-1.676 1.468-2.858-.003-.517-.091-.952-.275-1.298m-3.109 2.885c-.432.314-1.037.472-1.817.472h-.358c-.31.002-.51-.248-.437-.548l.432-1.872a.734.734 0 01.685-.545l.473-.004c.553.004.967.096 1.253.28.28.186.415.475.417.859.002.586-.214 1.037-.648 1.358" clip-rule="evenodd"></path><path data-fill="3" fill-rule="evenodd" d="M55.552 14.106h-1.29-.001a.74.74 0 00-.67.5c-.006.016-.017.03-.022.048l-.07.324-1.78 8.066-.08.348.003.006c-.06.278.108.503.38.532l.008.011h1.338a.741.741 0 00.67-.503c.005-.016.017-.03.02-.046l1.932-8.739-.002-.001c.064-.298-.127-.546-.436-.546" clip-rule="evenodd"></path></svg>